<?xml version="1.0" encoding="UTF-8" standalone="no"?>
<!DOCTYPE svg PUBLIC "-//W3C//DTD SVG 1.1//EN" "http://www.w3.org/Graphics/SVG/1.1/DTD/svg11.dtd">
<svg version="1.1" xmlns="http://www.w3.org/2000/svg" xmlns:xlink="http://www.w3.org/1999/xlink" preserveAspectRatio="xMidYMid meet" viewBox="0 0 650 110" width="650" height="110"><defs><path d="M160.3 86.78L153.12 66.31C151.65 66.82 150.84 67.11 150.68 67.16C149.83 67.43 149.08 67.64 148.44 67.91C147.7 68.12 146.97 68.38 146.26 68.71C145.53 68.86 144.83 69.15 144.19 69.56C143.64 69.93 143.15 70.4 142.76 70.94C142.29 71.55 142.05 72.3 142.07 73.06C142.07 73.98 142.07 78.55 142.07 86.78L134.68 86.78L134.68 23L142.07 23L142.07 62.86L144.09 62.17L146.58 61.26L149.24 60.31L151.63 59.51L152.7 59.19C153.27 58.97 153.59 58.84 153.65 58.82C154.9 58.56 155.97 57.76 156.58 56.64C156.96 55.84 157.18 54.97 157.21 54.09C157.21 53.22 157.21 48.88 157.21 41.07L164.71 41.07C164.71 49.61 164.71 54.36 164.71 55.31C164.72 56.87 164.38 58.42 163.7 59.83C162.85 61.38 161.62 62.7 160.14 63.66C160.68 65.2 163.39 72.9 168.27 86.78L160.3 86.78Z" id="j2wQJoaAJ6"></path><path d="M207.01 75.61C207.01 76.44 207.01 76.9 207.01 77C206.99 77.95 206.87 78.89 206.64 79.81C206.35 81.13 205.7 82.34 204.78 83.32C203.55 84.66 202.02 85.7 200.32 86.35C197.64 87.31 194.81 87.74 191.97 87.63C189.15 87.74 186.34 87.31 183.68 86.35C181.96 85.7 180.42 84.66 179.16 83.32C178.23 82.33 177.59 81.09 177.3 79.76C177.08 78.85 176.96 77.93 176.93 77C176.93 74.4 176.93 53.61 176.93 51.01C176.96 50.07 177.09 49.15 177.3 48.24C177.59 46.91 178.23 45.68 179.16 44.68C180.42 43.34 181.96 42.3 183.68 41.65C186.34 40.69 189.15 40.26 191.97 40.38C194.81 40.26 197.64 40.69 200.32 41.65C202.02 42.3 203.55 43.34 204.78 44.68C205.7 45.66 206.35 46.88 206.64 48.19C206.87 49.11 206.99 50.06 207.01 51.01C207.01 54.29 207.01 62.49 207.01 75.61ZM199.52 74.71C199.52 61.29 199.52 53.83 199.52 52.34C199.59 51.77 199.59 51.2 199.52 50.63C199.29 49.97 198.91 49.37 198.4 48.88C197.71 48.31 196.91 47.86 196.07 47.55C194.74 47.12 193.36 46.93 191.97 46.97C190.67 46.93 189.38 47.12 188.15 47.55C187.29 47.84 186.51 48.31 185.86 48.93C185.38 49.44 185.03 50.06 184.85 50.74C184.78 51.31 184.78 51.88 184.85 52.44C184.85 54.76 184.85 73.3 184.85 75.61C184.78 76.16 184.78 76.72 184.85 77.26C185.02 77.94 185.37 78.57 185.86 79.07C186.49 79.73 187.28 80.22 188.15 80.5C189.38 80.91 190.68 81.09 191.97 81.04C193.36 81.09 194.74 80.91 196.07 80.5C196.93 80.2 197.72 79.73 198.4 79.12C198.89 78.64 199.28 78.06 199.52 77.42C199.59 76.86 199.59 76.29 199.52 75.72C199.52 75.59 199.52 75.25 199.52 74.71Z" id="dzms3H7Yn"></path><path d="M268.4 86.78L260.91 86.78C260.91 66.18 260.91 54.73 260.91 52.44C260.98 51.86 260.98 51.27 260.91 50.69C260.76 50.02 260.43 49.42 259.95 48.93C259.34 48.31 258.59 47.84 257.77 47.55C256.49 47.12 255.14 46.93 253.79 46.97C252.43 46.93 251.08 47.13 249.8 47.55C248.92 47.83 248.11 48.29 247.41 48.88C246.87 49.34 246.48 49.95 246.29 50.63C246.22 51.16 246.22 51.7 246.29 52.23C246.29 54.53 246.29 66.05 246.29 86.78L238.27 86.78C238.27 66.18 238.27 54.73 238.27 52.44C238.34 51.86 238.34 51.27 238.27 50.69C238.1 50.03 237.77 49.43 237.31 48.93C236.69 48.29 235.92 47.82 235.08 47.55C233.81 47.12 232.48 46.93 231.14 46.97C229.79 46.93 228.44 47.13 227.16 47.55C226.28 47.83 225.47 48.29 224.77 48.88C224.23 49.34 223.84 49.95 223.65 50.63C223.49 51.15 223.4 51.69 223.38 52.23C223.38 54.53 223.38 66.05 223.38 86.78L215.94 86.78C215.94 65.31 215.94 53.39 215.94 51.01C215.97 50.06 216.09 49.11 216.32 48.19C216.61 46.88 217.25 45.66 218.18 44.68C219.43 43.34 220.97 42.3 222.69 41.65C225.34 40.68 228.16 40.25 230.98 40.38C233.33 40.31 235.68 40.59 237.95 41.23C239.51 41.65 240.99 42.35 242.3 43.3C243.63 42.36 245.1 41.66 246.66 41.23C248.93 40.59 251.28 40.31 253.63 40.38C256.46 40.26 259.3 40.69 261.97 41.65C263.67 42.3 265.2 43.34 266.43 44.68C267.37 45.68 268.01 46.91 268.29 48.24C268.51 49.15 268.64 50.07 268.67 51.01C268.67 53.39 268.67 65.31 268.67 86.78L268.4 86.78Z" id="b21Q5G2qci"></path><path d="M300.5 41.65C302.22 42.3 303.77 43.34 305.02 44.68C305.95 45.68 306.6 46.91 306.88 48.24C307.07 49.15 307.2 50.08 307.25 51.01C307.25 51.43 307.25 54.79 307.25 55.21C307.22 56.34 307.03 57.47 306.67 58.55C306.1 60.08 305.17 61.45 303.96 62.54C303.36 63.21 302.61 63.74 301.78 64.08C301.06 64.41 300.31 64.67 299.55 64.88C298.77 65.13 297.97 65.26 297.15 65.25C296.48 65.25 291.08 65.25 290.4 65.25C288.89 65.24 287.44 65.83 286.37 66.9C285.2 67.95 284.55 69.47 284.61 71.04C284.61 71.44 284.61 74.58 284.61 74.98C284.55 76.15 284.82 77.31 285.41 78.33C285.61 78.72 285.88 79.08 286.21 79.39C286.58 79.75 287.04 80.03 287.53 80.19C288.11 80.45 288.72 80.65 289.34 80.77C291.48 81.26 293.69 81.26 295.83 80.77C296.47 80.56 297.09 80.29 297.69 79.97C298.39 79.41 298.94 78.68 299.28 77.85C299.56 76.99 299.71 76.09 299.71 75.19C300.21 75.19 302.72 75.19 307.25 75.19C307.25 76.46 307.25 77.17 307.25 77.32C307.25 78.84 306.9 80.35 306.24 81.73C305.48 83.14 304.38 84.34 303.05 85.23C301.74 86 300.3 86.52 298.8 86.78C296.62 87.36 294.36 87.63 292.11 87.57C290.32 87.61 288.54 87.45 286.79 87.09C285.45 86.84 284.15 86.43 282.91 85.87C281.93 85.44 281.02 84.86 280.2 84.17C279.56 83.59 278.97 82.95 278.45 82.26C277.38 80.7 276.86 78.83 276.96 76.94C276.96 74.35 276.96 53.6 276.96 51.01C276.98 50.06 277.09 49.12 277.28 48.19C277.62 46.89 278.26 45.69 279.14 44.68C280.4 43.35 281.94 42.32 283.65 41.65C286.39 40.66 289.3 40.23 292.21 40.38C295.03 40.26 297.85 40.7 300.5 41.65ZM299.71 53.19C299.71 52.74 299.71 52.49 299.71 52.44C299.78 51.86 299.78 51.27 299.71 50.69C299.52 50.03 299.17 49.43 298.7 48.93C298.04 48.31 297.26 47.84 296.41 47.55C295.18 47.12 293.88 46.93 292.58 46.97C291.21 46.94 289.85 47.13 288.54 47.55C287.68 47.86 286.87 48.31 286.15 48.88C285.65 49.36 285.28 49.96 285.09 50.63C284.91 51.15 284.82 51.69 284.82 52.23C284.82 53.14 284.82 60.46 284.82 61.37C284.92 60.86 285.2 60.4 285.62 60.09C286.03 59.75 286.5 59.5 287 59.35C287.52 59.19 288.06 59.09 288.6 59.03C289 58.99 289.41 58.99 289.82 59.03C290.33 59.03 294.36 59.03 294.87 59.03C296.2 59.05 297.48 58.53 298.43 57.6C299.4 56.69 299.94 55.42 299.92 54.09C299.92 54.04 299.92 53.77 299.92 53.29L299.71 53.19Z" id="c1I8ziCput"></path><path d="M333.88 80.34C333.88 84.2 333.88 86.35 333.88 86.78C331 86.97 328.11 86.59 325.38 85.66C323.65 84.99 322.09 83.96 320.81 82.63C319.87 81.63 319.23 80.4 318.95 79.07C318.72 78.16 318.6 77.24 318.57 76.31C318.57 74.32 318.57 64.42 318.57 46.6L313.1 46.6L313.1 40.38L318.73 40.38L318.73 28.68L326.28 28.68L326.28 40.38L333.88 40.38L333.88 46.6L326.28 46.6C326.28 63.53 326.28 72.94 326.28 74.82C326.21 75.38 326.21 75.95 326.28 76.52C326.44 77.2 326.79 77.83 327.29 78.33C327.91 78.97 328.68 79.46 329.52 79.76C330.77 80.21 332.08 80.41 333.4 80.34C333.47 80.34 333.63 80.34 333.88 80.34Z" id="aDovd5hNr"></path><path d="M373.58 43.41C375.9 45.25 377.23 48.05 377.2 51.01C377.2 53.61 377.2 74.4 377.2 77C377.19 78.19 377 79.37 376.61 80.5C376.18 81.83 375.41 83.02 374.38 83.96C373.03 85.14 371.46 86.04 369.76 86.62C364.78 87.96 359.53 87.96 354.56 86.62C352.87 86.05 351.32 85.14 349.98 83.96C348.92 83.04 348.13 81.84 347.7 80.5C347.34 79.37 347.14 78.19 347.11 77C347.11 76.59 347.11 73.31 347.11 72.9C347.09 70.76 347.7 68.65 348.87 66.84C349.98 65.01 351.71 63.63 353.76 62.97C354 62.88 355.2 62.48 357.37 61.74L361.31 60.36L364.65 59.19L366.41 58.55C366.98 58.27 367.3 58.11 367.36 58.08C367.78 57.85 368.14 57.54 368.43 57.17C368.81 56.74 369.13 56.25 369.38 55.74C369.65 55.17 369.78 54.55 369.76 53.93C369.76 53.76 369.76 52.4 369.76 52.23C369.75 51.61 369.64 51 369.44 50.42C369.13 49.77 368.7 49.2 368.16 48.72C367.49 48.13 366.69 47.69 365.82 47.45C364.63 47.09 363.4 46.93 362.16 46.97C360 46.69 357.84 47.35 356.2 48.77C355.16 49.98 354.61 51.54 354.66 53.13C354.16 53.13 351.64 53.13 347.11 53.13C347.11 51.86 347.11 51.15 347.11 51.01C347.13 49.58 347.42 48.18 347.97 46.86C348.58 45.54 349.51 44.39 350.68 43.51C352.07 42.46 353.66 41.68 355.35 41.23C357.57 40.61 359.86 40.32 362.16 40.38C366.2 40.05 370.23 41.12 373.58 43.41ZM369.76 63.66C369.68 64.2 369.37 64.68 368.91 64.98C368.49 65.24 368.04 65.43 367.58 65.57C367.39 65.64 366.43 65.99 364.71 66.63L361.84 67.64C360.02 68.25 359.01 68.58 358.81 68.65C358.09 68.99 357.42 69.4 356.79 69.87C356.23 70.42 355.73 71.03 355.3 71.68C354.85 72.53 354.63 73.48 354.66 74.45C354.52 76.25 355.09 78.05 356.26 79.44C357.95 80.7 360.06 81.27 362.16 81.04C364.31 81.31 366.47 80.69 368.16 79.34C369.31 77.97 369.88 76.22 369.76 74.45C369.76 72.29 369.76 65.81 369.76 63.66Z" id="m5YjwSkDr"></path><path d="M408.5 86.78C408.5 66.18 408.5 54.73 408.5 52.44C408.57 51.86 408.57 51.27 408.5 50.69C408.31 50.03 407.97 49.43 407.49 48.93C406.85 48.32 406.09 47.85 405.26 47.55C404.01 47.13 402.7 46.93 401.38 46.97C400.01 46.94 398.65 47.13 397.34 47.55C396.49 47.85 395.69 48.3 395 48.88C394.46 49.34 394.08 49.95 393.89 50.63C393.79 51.16 393.79 51.7 393.89 52.23C393.89 54.53 393.89 66.05 393.89 86.78L385.86 86.78C385.86 65.31 385.86 53.39 385.86 51.01C385.88 50.06 386.01 49.11 386.23 48.19C386.53 46.86 387.19 45.65 388.15 44.68C389.41 43.35 390.95 42.32 392.66 41.65C395.34 40.69 398.17 40.26 401.01 40.38C403.83 40.26 406.64 40.69 409.3 41.65C411.02 42.3 412.56 43.34 413.82 44.68C414.75 45.68 415.39 46.91 415.68 48.24C415.9 49.15 416.02 50.07 416.05 51.01C416.05 53.39 416.05 65.31 416.05 86.78L408.5 86.78Z" id="buxzLcGQ"></path><path d="M451.18 43.41C453.5 45.25 454.83 48.05 454.79 51.01C454.79 53.61 454.79 74.4 454.79 77C454.77 78.19 454.57 79.37 454.21 80.5C453.78 81.83 453.01 83.02 451.98 83.96C450.71 85.16 449.23 86.11 447.62 86.78C442.64 88.12 437.4 88.12 432.42 86.78C430.72 86.2 429.15 85.3 427.8 84.12C426.76 83.18 425.99 81.99 425.56 80.66C425.18 79.53 424.98 78.35 424.98 77.16C424.98 76.75 424.98 73.47 424.98 73.06C424.83 70.9 425.31 68.74 426.36 66.84C427.5 65.01 429.25 63.64 431.3 62.97C431.54 62.88 432.75 62.48 434.92 61.74L438.85 60.36L442.15 59.19L443.95 58.55C444.49 58.27 444.8 58.11 444.86 58.08C445.28 57.84 445.66 57.54 445.97 57.17C446.35 56.74 446.65 56.26 446.88 55.74C447.16 55.18 447.31 54.56 447.3 53.93C447.3 53.76 447.3 52.4 447.3 52.23C447.3 51.61 447.17 50.99 446.93 50.42C446.66 49.76 446.24 49.18 445.71 48.72C445.02 48.14 444.23 47.71 443.37 47.45C442.18 47.09 440.94 46.93 439.7 46.97C437.55 46.68 435.38 47.34 433.75 48.77C432.69 49.98 432.12 51.53 432.15 53.13C431.66 53.13 429.18 53.13 424.71 53.13C424.71 51.86 424.71 51.15 424.71 51.01C424.7 49.58 424.99 48.17 425.56 46.86C426.14 45.53 427.06 44.38 428.22 43.51C429.64 42.46 431.24 41.68 432.95 41.23C435.16 40.61 437.46 40.32 439.75 40.38C443.8 40.06 447.83 41.12 451.18 43.41ZM447.62 63.66C447.52 64.21 447.19 64.69 446.72 64.98C446.3 65.24 445.85 65.43 445.39 65.57C445.2 65.64 444.24 65.99 442.52 66.63L439.65 67.64C437.86 68.25 436.87 68.58 436.67 68.65C435.94 68.99 435.25 69.4 434.6 69.87C434.04 70.41 433.56 71.02 433.16 71.68C432.7 72.53 432.46 73.48 432.47 74.45C432.33 76.25 432.9 78.05 434.07 79.44C435.78 80.71 437.9 81.28 440.02 81.04C442.17 81.3 444.33 80.69 446.03 79.34C447.17 77.97 447.74 76.22 447.62 74.45C447.62 72.29 447.62 65.81 447.62 63.66Z" id="adPt4PBq0"></path><path d="M465.74 23.26L473.18 23.26L473.18 86.78L465.74 86.78L465.74 23.26Z" id="bU93fevfH"></path><path d="M512.04 93.13L512.04 93.13C512.04 93.86 512.04 94.27 512.04 94.35C512.01 95.3 511.89 96.24 511.66 97.17C511.37 98.48 510.73 99.69 509.8 100.67C508.55 102.02 507.01 103.05 505.29 103.7C499.89 105.4 494.1 105.4 488.7 103.7C486.99 103.05 485.44 102.02 484.19 100.67C483.25 99.68 482.61 98.45 482.33 97.11C482.1 96.21 481.98 95.28 481.95 94.35C481.95 94.2 481.95 93.44 481.95 92.06L489.5 92.06C489.5 92.54 489.5 92.81 489.5 92.86C489.43 93.43 489.43 94 489.5 94.56C489.66 95.25 490.01 95.88 490.51 96.37C491.13 97.01 491.9 97.51 492.74 97.8C493.99 98.25 495.3 98.45 496.62 98.39C498.03 98.47 499.44 98.27 500.77 97.8C501.63 97.53 502.43 97.08 503.11 96.48C503.63 96.03 504.02 95.44 504.22 94.77C504.29 94.19 504.29 93.6 504.22 93.02C504.22 93.02 504.22 93.02 504.22 93.02C504.22 92.06 504.22 91.53 504.22 91.43C504.25 90.79 504.12 90.15 503.85 89.57C503.6 89.07 503.27 88.6 502.89 88.18C502.59 87.79 502.21 87.47 501.78 87.23C501.72 87.2 501.42 87.04 500.88 86.75L499.39 86.11L496.09 84.94L492.16 83.56C489.96 82.83 488.74 82.42 488.49 82.34C486.46 81.62 484.72 80.26 483.55 78.46C482.42 76.64 481.83 74.54 481.85 72.4C481.85 70.27 481.85 59.64 481.85 40.51L489.4 40.51C489.4 58.69 489.4 68.78 489.4 70.8C489.35 71.77 489.57 72.72 490.03 73.57C490.41 74.24 490.9 74.85 491.47 75.38C492.09 75.89 492.79 76.3 493.54 76.6C494.44 76.97 495.45 77.34 496.52 77.66C496.71 77.73 497.67 78.06 499.39 78.67C501.14 79.28 502.12 79.61 502.31 79.68C502.79 79.8 503.24 80.02 503.64 80.32C504.12 80.62 504.44 81.13 504.49 81.7C504.49 78.95 504.49 65.22 504.49 40.51L512.04 40.51L512.04 93.13Z" id="agFxbB0nT"></path><path d="M541.48 80.34C541.48 84.2 541.48 86.35 541.48 86.78C538.64 86.89 535.81 86.46 533.14 85.5C531.43 84.84 529.88 83.8 528.62 82.47C527.65 81.49 526.99 80.26 526.71 78.91C526.48 78 526.36 77.08 526.33 76.15C526.33 74.18 526.33 64.33 526.33 46.6L520.7 46.6L520.7 40.38L526.33 40.38L526.33 28.68L533.88 28.68L533.88 40.38L541.48 40.38L541.48 46.6L533.88 46.6C533.88 63.53 533.88 72.94 533.88 74.82C533.81 75.38 533.81 75.95 533.88 76.52C534.06 77.2 534.41 77.82 534.89 78.33C535.51 78.97 536.28 79.46 537.12 79.76C538.37 80.21 539.68 80.41 541 80.34C541.07 80.34 541.23 80.34 541.48 80.34Z" id="c5KaSvdutt"></path><path d="M556.15 23.32L556.15 32.19L548.6 32.19L548.6 23.32L556.15 23.32ZM548.6 41.07L556.04 41.07L556.04 86.78L548.6 86.78L548.6 41.07Z" id="bfc8CijV"></path><path d="M587.46 53.13C587.46 52.59 587.46 52.29 587.46 52.23C587.45 51.61 587.34 51 587.14 50.42C586.83 49.77 586.4 49.2 585.86 48.72C585.18 48.14 584.38 47.71 583.52 47.45C582.33 47.09 581.09 46.93 579.85 46.97C577.7 46.69 575.54 47.35 573.9 48.77C572.86 49.98 572.31 51.54 572.36 53.13C572.36 55.26 572.36 72.27 572.36 74.39C572.22 76.2 572.79 77.99 573.96 79.39C575.65 80.65 577.76 81.22 579.85 80.98C581.98 81.26 584.13 80.66 585.81 79.34C586.95 77.97 587.53 76.22 587.4 74.45C587.9 74.45 590.38 74.45 594.84 74.45C594.84 75.98 594.84 76.83 594.84 77C594.81 78.19 594.62 79.37 594.26 80.5C593.83 81.83 593.06 83.02 592.03 83.96C590.67 85.14 589.1 86.04 587.4 86.62C582.42 87.96 577.18 87.96 572.2 86.62C570.5 86.04 568.93 85.14 567.58 83.96C566.55 83.02 565.78 81.83 565.35 80.5C564.99 79.37 564.79 78.19 564.76 77C564.76 74.4 564.76 53.61 564.76 51.01C564.75 49.58 565.04 48.17 565.61 46.86C566.21 45.53 567.15 44.38 568.32 43.51C569.71 42.45 571.3 41.67 573 41.23C575.21 40.61 577.5 40.32 579.8 40.38C583.86 40.03 587.92 41.1 591.28 43.41C593.58 45.25 594.9 48.06 594.84 51.01C594.84 51.15 594.84 51.86 594.84 53.13L587.46 53.13Z" id="c21lZgWe0"></path><path d="M618.6 46.97C617.36 46.93 616.12 47.09 614.93 47.45C614.07 47.71 613.28 48.14 612.59 48.72C612.06 49.18 611.64 49.76 611.37 50.42C611.13 50.99 611 51.61 611 52.23C611 52.4 611 53.76 611 53.93C610.98 54.55 611.11 55.17 611.37 55.74C611.63 56.25 611.95 56.74 612.33 57.17C612.63 57.55 613.01 57.85 613.44 58.08C613.51 58.11 613.81 58.27 614.35 58.55L616.1 59.19L619.45 60.36L623.38 61.74C625.55 62.48 626.76 62.88 627 62.97C629.05 63.64 630.8 65.01 631.94 66.84C633.07 68.66 633.66 70.76 633.64 72.9C633.64 73.31 633.64 76.59 633.64 77C633.61 78.19 633.42 79.37 633.06 80.5C632.63 81.83 631.86 83.02 630.82 83.96C629.47 85.14 627.9 86.04 626.2 86.62C621.22 87.96 615.98 87.96 611 86.62C609.3 86.04 607.73 85.14 606.38 83.96C605.34 83.02 604.58 81.83 604.14 80.5C603.79 79.37 603.59 78.19 603.56 77C603.56 76.83 603.56 75.98 603.56 74.45C608.02 74.45 610.5 74.45 611 74.45C610.88 76.22 611.45 77.97 612.59 79.34C614.29 80.69 616.45 81.3 618.6 81.04C620.71 81.27 622.84 80.7 624.55 79.44C625.72 78.05 626.29 76.25 626.15 74.45C626.18 73.48 625.96 72.53 625.51 71.68C625.12 71.02 624.64 70.41 624.07 69.87C623.42 69.37 622.71 68.96 621.95 68.65C621.62 68.54 619.97 67.95 617.01 66.9L613.07 65.57C611.41 65 610.49 64.68 610.31 64.61C609.59 64.32 608.89 63.97 608.24 63.55C607.42 63.06 606.69 62.45 606.06 61.74C605.3 60.93 604.69 59.99 604.25 58.98C603.79 57.77 603.56 56.49 603.56 55.21C603.56 54.79 603.56 51.43 603.56 51.01C603.53 48.05 604.86 45.25 607.17 43.41C610.52 41.12 614.56 40.05 618.6 40.38C620.9 40.32 623.19 40.61 625.4 41.23C627.1 41.67 628.69 42.45 630.08 43.51C631.27 44.36 632.21 45.52 632.79 46.86C633.36 48.17 633.65 49.58 633.64 51.01C633.64 51.15 633.64 51.86 633.64 53.13C629.15 53.13 626.65 53.13 626.15 53.13C626.18 51.53 625.61 49.98 624.55 48.77C622.92 47.34 620.75 46.68 618.6 46.97Z" id="c3DRgza0jz"></path><path d="M77.33 31.98L106.35 12.9L109.38 17.36L80.31 36.5L80.31 36.5L77.33 31.98Z" id="aUJKJ6bcW"></path><path d="M43.95 39.63L69.2 36.07L70 41.39L44.7 44.95L44.7 44.95L43.95 39.63Z" id="apB7zcg55"></path><path d="M16.69 60.65L33.38 45.19L37.04 49.12L20.41 64.59L20.41 64.59L16.69 60.65Z" id="d28s27zdRR"></path><path d="M6.64 66.29C6.7 61.83 10.37 58.26 14.83 58.32C19.25 58.37 22.8 61.97 22.8 66.39C22.77 70.88 19.11 74.5 14.61 74.47C14.61 74.47 14.61 74.47 14.61 74.47C10.15 74.41 6.58 70.75 6.64 66.29ZM14.61 63.84C13.12 63.84 11.9 65.06 11.9 66.55C11.9 68.05 13.12 69.26 14.61 69.26C16.11 69.26 17.32 68.05 17.32 66.55C17.41 65.06 16.27 63.78 14.78 63.69C14.72 63.68 14.67 63.68 14.61 63.68C14.61 63.71 14.61 63.81 14.61 63.84Z" id="c5vWFv8ce"></path><path d="M30.98 43.38C30.98 38.89 34.63 35.25 39.12 35.25C43.61 35.25 47.25 38.89 47.25 43.38C47.25 43.4 47.25 43.42 47.25 43.43C47.25 47.89 43.63 51.51 39.17 51.51C39.15 51.51 39.13 51.51 39.12 51.51C34.62 51.51 30.98 47.87 30.98 43.38ZM39.12 40.88C37.62 40.88 36.41 42.1 36.41 43.59C36.41 43.59 36.41 43.59 36.41 43.59C36.7 45.06 38.13 46.01 39.6 45.72C40.67 45.5 41.51 44.66 41.72 43.59C41.81 42.1 40.67 40.81 39.18 40.72C39.16 40.72 39.14 40.72 39.12 40.72C39.12 40.75 39.12 40.85 39.12 40.88Z" id="b2LgtewUXQ"></path><path d="M67.02 37.4C67.05 32.94 70.69 29.35 75.15 29.38C79.59 29.4 83.18 33.01 83.18 37.45C83.15 41.92 79.52 45.53 75.04 45.53C70.58 45.5 66.99 41.86 67.02 37.4ZM75.04 34.9C73.55 34.9 72.33 36.12 72.33 37.61C72.33 39.11 73.55 40.32 75.04 40.32C76.54 40.32 77.76 39.11 77.76 37.61C77.84 36.12 76.7 34.84 75.21 34.75C75.15 34.74 75.1 34.74 75.04 34.74C75.04 34.77 75.04 34.87 75.04 34.9Z" id="bY0qSp9F2"></path><path d="M104.44 12.1C104.5 7.64 108.16 4.07 112.62 4.13C117.09 4.19 120.65 7.85 120.59 12.32C120.59 12.33 120.59 12.35 120.59 12.37C120.48 16.8 116.84 20.32 112.41 20.29C107.95 20.23 104.38 16.56 104.44 12.1ZM112.41 9.66C110.91 9.66 109.7 10.87 109.7 12.37C109.7 13.86 110.91 15.08 112.41 15.08C113.91 15.08 115.12 13.86 115.12 12.37C115.21 10.87 114.07 9.59 112.57 9.5C112.52 9.5 112.46 9.5 112.41 9.5C112.41 9.53 112.41 9.62 112.41 9.66Z" id="a4hfNkZXrc"></path><path d="M28.01 78.72C28.01 78.72 28.01 78.72 28.01 78.72C28.01 83.7 28.01 86.46 28.01 87.02C28.01 87.02 28.01 87.02 28.01 87.02C18.35 87.02 12.98 87.02 11.9 87.02C11.9 87.02 11.9 87.02 11.9 87.02C11.9 82.04 11.9 79.28 11.9 78.72C11.9 78.72 11.9 78.72 11.9 78.72C21.57 78.72 26.93 78.72 28.01 78.72Z" id="e17DXg8LJZ"></path><path d="M49.96 60.97C49.96 60.97 49.96 60.97 49.96 60.97C49.96 76.6 49.96 85.28 49.96 87.02C49.96 87.02 49.96 87.02 49.96 87.02C40.17 87.02 34.73 87.02 33.64 87.02C33.64 87.02 33.64 87.02 33.64 87.02C33.64 71.39 33.64 62.71 33.64 60.97C33.64 60.97 33.64 60.97 33.64 60.97C43.43 60.97 48.87 60.97 49.96 60.97Z" id="b2013N5Mm"></path><path d="M71.7 54.3C71.7 54.3 71.7 54.3 71.7 54.3C71.7 74.2 71.7 85.26 71.7 87.47C71.7 87.47 71.7 87.47 71.7 87.47C61.91 87.47 56.47 87.47 55.38 87.47C55.38 87.47 55.38 87.47 55.38 87.47C55.38 67.57 55.38 56.51 55.38 54.3C55.38 54.3 55.38 54.3 55.38 54.3C65.17 54.3 70.61 54.3 71.7 54.3Z" id="b41C2L95W"></path><path d="M93.33 51.22C93.33 51.22 93.33 51.22 93.33 51.22C93.33 72.94 93.33 85 93.33 87.41C93.33 87.41 93.33 87.41 93.33 87.41C83.6 87.41 78.2 87.41 77.12 87.41C77.12 87.41 77.12 87.41 77.12 87.41C77.12 65.7 77.12 53.63 77.12 51.22C77.12 51.22 77.12 51.22 77.12 51.22C86.84 51.22 92.25 51.22 93.33 51.22Z" id="c2KyVqwtV"></path><path d="M115.17 31.82C115.17 31.82 115.17 31.82 115.17 31.82C115.17 65.18 115.17 83.71 115.17 87.41C115.17 87.41 115.17 87.41 115.17 87.41C105.38 87.41 99.94 87.41 98.86 87.41C98.86 87.41 98.86 87.41 98.86 87.41C98.86 54.06 98.86 35.53 98.86 31.82C98.86 31.82 98.86 31.82 98.86 31.82C108.65 31.82 114.08 31.82 115.17 31.82Z" id="cgUZ4uRH3"></path></defs><g><g><g><use xlink:href="#j2wQJoaAJ6" opacity="1" fill="#6c6d70" fill-opacity="1"></use><g><use xlink:href="#j2wQJoaAJ6" opacity="1" fill-opacity="0" stroke="#000000" stroke-width="1" stroke-opacity="0"></use></g></g><g><use xlink:href="#dzms3H7Yn" opacity="1" fill="#6c6d70" fill-opacity="1"></use><g><use xlink:href="#dzms3H7Yn" opacity="1" fill-opacity="0" stroke="#000000" stroke-width="1" stroke-opacity="0"></use></g></g><g><use xlink:href="#b21Q5G2qci" opacity="1" fill="#6c6d70" fill-opacity="1"></use><g><use xlink:href="#b21Q5G2qci" opacity="1" fill-opacity="0" stroke="#000000" stroke-width="1" stroke-opacity="0"></use></g></g><g><use xlink:href="#c1I8ziCput" opacity="1" fill="#6c6d70" fill-opacity="1"></use><g><use xlink:href="#c1I8ziCput" opacity="1" fill-opacity="0" stroke="#000000" stroke-width="1" stroke-opacity="0"></use></g></g><g><use xlink:href="#aDovd5hNr" opacity="1" fill="#6c6d70" fill-opacity="1"></use><g><use xlink:href="#aDovd5hNr" opacity="1" fill-opacity="0" stroke="#000000" stroke-width="1" stroke-opacity="0"></use></g></g><g><use xlink:href="#m5YjwSkDr" opacity="1" fill="#2c85ac" fill-opacity="1"></use><g><use xlink:href="#m5YjwSkDr" opacity="1" fill-opacity="0" stroke="#000000" stroke-width="1" stroke-opacity="0"></use></g></g><g><use xlink:href="#buxzLcGQ" opacity="1" fill="#2c85ac" fill-opacity="1"></use><g><use xlink:href="#buxzLcGQ" opacity="1" fill-opacity="0" stroke="#000000" stroke-width="1" stroke-opacity="0"></use></g></g><g><use xlink:href="#adPt4PBq0" opacity="1" fill="#2c85ac" fill-opacity="1"></use><g><use xlink:href="#adPt4PBq0" opacity="1" fill-opacity="0" stroke="#000000" stroke-width="1" stroke-opacity="0"></use></g></g><g><use xlink:href="#bU93fevfH" opacity="1" fill="#2c85ac" fill-opacity="1"></use><g><use xlink:href="#bU93fevfH" opacity="1" fill-opacity="0" stroke="#000000" stroke-width="1" stroke-opacity="0"></use></g></g><g><use xlink:href="#agFxbB0nT" opacity="1" fill="#2c85ac" fill-opacity="1"></use><g><use xlink:href="#agFxbB0nT" opacity="1" fill-opacity="0" stroke="#000000" stroke-width="1" stroke-opacity="0"></use></g></g><g><use xlink:href="#c5KaSvdutt" opacity="1" fill="#2c85ac" fill-opacity="1"></use><g><use xlink:href="#c5KaSvdutt" opacity="1" fill-opacity="0" stroke="#000000" stroke-width="1" stroke-opacity="0"></use></g></g><g><use xlink:href="#bfc8CijV" opacity="1" fill="#2c85ac" fill-opacity="1"></use><g><use xlink:href="#bfc8CijV" opacity="1" fill-opacity="0" stroke="#000000" stroke-width="1" stroke-opacity="0"></use></g></g><g><use xlink:href="#c21lZgWe0" opacity="1" fill="#2c85ac" fill-opacity="1"></use><g><use xlink:href="#c21lZgWe0" opacity="1" fill-opacity="0" stroke="#000000" stroke-width="1" stroke-opacity="0"></use></g></g><g><use xlink:href="#c3DRgza0jz" opacity="1" fill="#2c85ac" fill-opacity="1"></use><g><use xlink:href="#c3DRgza0jz" opacity="1" fill-opacity="0" stroke="#000000" stroke-width="1" stroke-opacity="0"></use></g></g><g><use xlink:href="#aUJKJ6bcW" opacity="1" fill="#00577f" fill-opacity="1"></use><g><use xlink:href="#aUJKJ6bcW" opacity="1" fill-opacity="0" stroke="#000000" stroke-width="1" stroke-opacity="0"></use></g></g><g><use xlink:href="#apB7zcg55" opacity="1" fill="#00577f" fill-opacity="1"></use><g><use xlink:href="#apB7zcg55" opacity="1" fill-opacity="0" stroke="#000000" stroke-width="1" stroke-opacity="0"></use></g></g><g><use xlink:href="#d28s27zdRR" opacity="1" fill="#00577f" fill-opacity="1"></use><g><use xlink:href="#d28s27zdRR" opacity="1" fill-opacity="0" stroke="#000000" stroke-width="1" stroke-opacity="0"></use></g></g><g><use xlink:href="#c5vWFv8ce" opacity="1" fill="#e4b200" fill-opacity="1"></use><g><use xlink:href="#c5vWFv8ce" opacity="1" fill-opacity="0" stroke="#000000" stroke-width="1" stroke-opacity="0"></use></g></g><g><use xlink:href="#b2LgtewUXQ" opacity="1" fill="#e4b200" fill-opacity="1"></use><g><use xlink:href="#b2LgtewUXQ" opacity="1" fill-opacity="0" stroke="#000000" stroke-width="1" stroke-opacity="0"></use></g></g><g><use xlink:href="#bY0qSp9F2" opacity="1" fill="#e4b200" fill-opacity="1"></use><g><use xlink:href="#bY0qSp9F2" opacity="1" fill-opacity="0" stroke="#000000" stroke-width="1" stroke-opacity="0"></use></g></g><g><use xlink:href="#a4hfNkZXrc" opacity="1" fill="#e4b200" fill-opacity="1"></use><g><use xlink:href="#a4hfNkZXrc" opacity="1" fill-opacity="0" stroke="#000000" stroke-width="1" stroke-opacity="0"></use></g></g><g><use xlink:href="#e17DXg8LJZ" opacity="1" fill="#00577f" fill-opacity="1"></use><g><use xlink:href="#e17DXg8LJZ" opacity="1" fill-opacity="0" stroke="#000000" stroke-width="1" stroke-opacity="0"></use></g></g><g><use xlink:href="#b2013N5Mm" opacity="1" fill="#00577f" fill-opacity="1"></use><g><use xlink:href="#b2013N5Mm" opacity="1" fill-opacity="0" stroke="#000000" stroke-width="1" stroke-opacity="0"></use></g></g><g><use xlink:href="#b41C2L95W" opacity="1" fill="#00577f" fill-opacity="1"></use><g><use xlink:href="#b41C2L95W" opacity="1" fill-opacity="0" stroke="#000000" stroke-width="1" stroke-opacity="0"></use></g></g><g><use xlink:href="#c2KyVqwtV" opacity="1" fill="#00577f" fill-opacity="1"></use><g><use xlink:href="#c2KyVqwtV" opacity="1" fill-opacity="0" stroke="#000000" stroke-width="1" stroke-opacity="0"></use></g></g><g><use xlink:href="#cgUZ4uRH3" opacity="1" fill="#00577f" fill-opacity="1"></use><g><use xlink:href="#cgUZ4uRH3" opacity="1" fill-opacity="0" stroke="#000000" stroke-width="1" stroke-opacity="0"></use></g></g></g></g></svg>