<svg width="1637" height="1569" viewBox="0 0 1637 1569" fill="none" xmlns="http://www.w3.org/2000/svg">
<path d="M512.5 1372.79C266.762 1708.78 -41.9438 1506.95 -165.579 1364.03L-147.959 1.00007C220.123 31.2983 988.333 195.263 1116.53 608.734C1276.77 1125.57 819.673 952.805 512.5 1372.79Z" fill="#E7D0A8" stroke="black"/>
<mask id="mask0" mask-type="alpha" maskUnits="userSpaceOnUse" x="-170" y="-1" width="1330" height="1569">
<path d="M511.5 1371.79C265.762 1707.78 -42.9438 1505.95 -166.579 1363.03L-148.959 7.3872e-05C219.123 30.2983 987.333 194.263 1115.53 607.734C1275.77 1124.57 818.673 951.805 511.5 1371.79Z" fill="#E7D0A8" stroke="black"/>
</mask>
<g mask="url(#mask0)">
<path d="M1102.89 723.015C1102.89 722.983 1102.89 722.951 1102.89 722.919C1102.94 722.829 1102.98 722.736 1103.01 722.64C1103.05 722.558 1103.09 722.471 1103.11 722.382L1103.17 722.114C1103.17 722.028 1103.17 721.932 1103.17 721.835C1103.18 721.746 1103.18 721.656 1103.17 721.567C1103.18 721.474 1103.18 721.381 1103.17 721.288C1103.18 721.198 1103.18 721.109 1103.17 721.019C1103.16 720.925 1103.14 720.832 1103.12 720.74L1103.02 720.494C1103.02 720.397 1102.95 720.311 1102.89 720.215C1102.84 720.118 1102.89 720.15 1102.89 720.129C1102.87 720.084 1102.84 720.041 1102.81 720C1102.74 719.914 1102.69 719.828 1102.61 719.742L1102.43 719.549C1102.37 719.479 1102.3 719.415 1102.23 719.356L1101.98 719.174C1101.94 719.148 1101.89 719.119 1101.85 719.088L1059.44 694.598C1058.88 694.1 1058.15 693.825 1057.39 693.825C1056.64 693.825 1055.91 694.1 1055.34 694.598L1012.95 719.066C1012.9 719.095 1012.86 719.127 1012.81 719.163L1012.58 719.335L1012.36 719.528L1012.18 719.721L1012 719.979L1011.9 720.107C1011.9 720.136 1011.9 720.164 1011.9 720.193L1011.77 720.472C1011.77 720.558 1011.71 720.644 1011.69 720.719C1011.66 720.809 1011.63 720.903 1011.62 720.998C1011.62 721.087 1011.62 721.177 1011.62 721.266V721.814C1011.62 721.906 1011.62 722 1011.62 722.093C1011.63 722.183 1011.65 722.273 1011.68 722.361L1011.77 722.618C1011.77 722.715 1011.85 722.801 1011.89 722.897C1011.9 722.93 1011.9 722.962 1011.89 722.994C1011.94 723.069 1011.99 723.144 1012.04 723.209L1012.09 723.295C1012.2 723.426 1012.31 723.548 1012.44 723.659L1012.51 723.735L1012.9 724.013L1055.83 749.114C1056.27 749.37 1056.77 749.503 1057.27 749.501H1057.5C1058.01 749.503 1058.51 749.37 1058.95 749.114L1101.87 724.013L1102.26 723.735C1102.28 723.704 1102.31 723.679 1102.35 723.659C1102.47 723.545 1102.58 723.424 1102.68 723.295V723.209C1102.75 723.148 1102.83 723.084 1102.89 723.015ZM1057.39 743.405L1020.11 721.599L1057.39 700.136L1094.68 721.599L1057.39 743.405Z" fill="white"/>
<path d="M1618.38 723.08C1618.38 723.048 1618.38 723.015 1618.38 722.983C1618.43 722.893 1618.47 722.8 1618.51 722.704C1618.54 722.624 1618.57 722.541 1618.6 722.457C1618.6 722.361 1618.6 722.275 1618.66 722.189C1618.67 722.096 1618.67 722.003 1618.66 721.91C1618.66 721.817 1618.66 721.724 1618.66 721.631C1618.66 721.542 1618.66 721.452 1618.66 721.363C1618.66 721.27 1618.66 721.177 1618.66 721.084C1618.64 720.993 1618.62 720.903 1618.6 720.816C1618.57 720.731 1618.54 720.648 1618.5 720.569C1618.46 720.468 1618.42 720.371 1618.37 720.279V720.193L1618.28 720.064C1618.23 719.978 1618.17 719.895 1618.1 719.817C1618.04 719.744 1617.98 719.676 1617.91 719.614L1617.7 719.42C1617.63 719.357 1617.54 719.3 1617.46 719.249L1617.33 719.152L1597.21 707.541C1596.69 707.118 1596.03 706.893 1595.36 706.907C1594.69 706.89 1594.04 707.115 1593.52 707.541L1573.86 718.884H1514.42C1514.97 706.861 1520.13 695.512 1528.83 687.193C1537.53 678.874 1549.09 674.224 1561.13 674.209C1561.89 674.209 1562.62 673.906 1563.16 673.366C1563.7 672.827 1564 672.095 1564 671.333C1564 670.57 1563.7 669.838 1563.16 669.299C1562.62 668.76 1561.89 668.457 1561.13 668.457C1547.57 668.479 1534.54 673.738 1524.77 683.136C1514.99 692.535 1509.23 705.346 1508.67 718.895H1473.7C1473.33 701.813 1468.39 685.142 1459.4 670.612C1450.41 656.083 1437.7 644.225 1422.58 636.27C1407.46 628.315 1390.48 624.552 1373.42 625.374C1356.35 626.195 1339.82 631.57 1325.53 640.941C1325.36 641.059 1325.2 641.192 1325.06 641.338L1246.37 595.923L1392.06 496.624C1392.69 496.197 1393.13 495.538 1393.27 494.791C1393.41 494.045 1393.25 493.272 1392.83 492.643C1392.4 492.014 1391.74 491.58 1390.99 491.437C1390.25 491.294 1389.47 491.454 1388.84 491.881L1241.82 592.081C1241.52 592.285 1241.26 592.548 1241.06 592.853L1216.38 578.602L1317.7 484.862C1317.99 484.61 1318.23 484.301 1318.4 483.955C1318.57 483.609 1318.67 483.231 1318.69 482.846C1318.71 482.46 1318.65 482.074 1318.52 481.711C1318.39 481.348 1318.19 481.014 1317.93 480.731C1317.66 480.448 1317.35 480.22 1316.99 480.062C1316.64 479.904 1316.26 479.818 1315.88 479.81C1315.49 479.802 1315.11 479.872 1314.75 480.015C1314.39 480.159 1314.06 480.373 1313.79 480.645L1211.16 575.597L1123.1 524.784L1165.66 394.117C1165.86 393.404 1165.77 392.644 1165.42 391.993C1165.07 391.343 1164.48 390.852 1163.78 390.623C1163.08 390.394 1162.31 390.444 1161.65 390.763C1160.98 391.082 1160.46 391.645 1160.2 392.336L1117.97 521.822L1060.98 488.93C1060.91 488.702 1060.82 488.482 1060.71 488.275C1060.49 487.915 1060.2 487.604 1059.86 487.363V385.832C1059.86 385.07 1059.56 384.338 1059.02 383.799C1058.48 383.259 1057.75 382.956 1056.98 382.956C1056.22 382.956 1055.49 383.259 1054.95 383.799C1054.41 384.338 1054.11 385.07 1054.11 385.832V488.264C1053.99 488.469 1053.9 488.69 1053.84 488.919L996.491 522.015L954.638 394.761C954.52 394.402 954.332 394.07 954.086 393.784C953.839 393.498 953.538 393.264 953.201 393.094C952.864 392.924 952.496 392.822 952.12 392.794C951.743 392.766 951.364 392.813 951.006 392.931C950.647 393.05 950.315 393.237 950.029 393.484C949.743 393.731 949.508 394.031 949.339 394.369C949.169 394.706 949.067 395.073 949.039 395.45C949.011 395.827 949.058 396.205 949.176 396.564L991.437 524.945L902.161 576.456L801.017 481.482C800.746 481.205 800.422 480.985 800.064 480.836C799.705 480.687 799.321 480.612 798.933 480.616C798.545 480.62 798.162 480.702 797.807 480.857C797.452 481.013 797.131 481.238 796.866 481.521C796.6 481.803 796.394 482.137 796.26 482.501C796.126 482.865 796.068 483.252 796.088 483.64C796.108 484.027 796.206 484.406 796.376 484.755C796.546 485.103 796.785 485.414 797.079 485.667L896.882 579.493L873.272 593.132C873.186 593.068 873.122 592.982 873.025 592.918L718.621 484.53C717.997 484.132 717.243 483.99 716.517 484.133C715.791 484.277 715.148 484.695 714.722 485.3C714.296 485.906 714.12 486.652 714.231 487.384C714.341 488.116 714.73 488.777 715.316 489.23L867.81 596.309L790.178 641.102C790.126 641.046 790.069 640.996 790.007 640.952C775.72 631.581 759.185 626.206 742.119 625.385C725.054 624.563 708.079 628.325 692.958 636.28C677.838 644.236 665.122 656.094 656.133 670.623C647.143 685.153 642.207 701.824 641.837 718.905H606.853C606.299 705.357 600.533 692.546 590.759 683.147C580.984 673.749 567.957 668.489 554.397 668.467C553.634 668.467 552.903 668.77 552.363 669.31C551.824 669.849 551.521 670.581 551.521 671.343C551.521 672.106 551.824 672.838 552.363 673.377C552.903 673.916 553.634 674.219 554.397 674.219C566.436 674.235 578.006 678.888 586.703 687.211C595.401 695.535 600.557 706.89 601.1 718.916H540.929L521.269 707.541C520.741 707.13 520.092 706.907 519.423 706.907C518.754 706.907 518.105 707.13 517.577 707.541L497.456 719.152L497.316 719.281C497.23 719.332 497.147 719.389 497.069 719.453L496.866 719.646L496.672 719.85C496.608 719.925 496.554 720.011 496.49 720.097C496.426 720.182 496.426 720.182 496.404 720.225V720.311C496.35 720.408 496.318 720.504 496.275 720.601L496.179 720.848L496.114 721.116C496.114 721.202 496.114 721.298 496.114 721.395C496.109 721.484 496.109 721.574 496.114 721.663C496.109 721.756 496.109 721.849 496.114 721.942C496.114 722.028 496.114 722.125 496.114 722.221C496.114 722.318 496.114 722.393 496.179 722.49C496.203 722.573 496.231 722.656 496.265 722.736L496.393 723.015C496.393 723.015 496.393 723.08 496.393 723.112C496.437 723.188 496.488 723.26 496.544 723.327C496.559 723.357 496.577 723.385 496.597 723.413C496.697 723.544 496.808 723.666 496.93 723.777L497.016 723.853C497.133 723.961 497.263 724.055 497.402 724.132V724.132L517.878 736.108C518.317 736.365 518.818 736.498 519.327 736.494H519.38C519.889 736.498 520.39 736.365 520.829 736.108L540.543 724.647H600.993C600.052 736.363 594.737 747.297 586.104 755.274C577.471 763.252 566.152 767.688 554.397 767.701C553.666 767.746 552.98 768.068 552.478 768.601C551.976 769.135 551.697 769.84 551.697 770.572C551.697 771.304 551.976 772.009 552.478 772.543C552.98 773.076 553.666 773.398 554.397 773.443C567.676 773.426 580.457 768.386 590.173 759.334C599.889 750.283 605.821 737.891 606.777 724.647H641.902C642.556 741.579 647.695 758.033 656.794 772.328C665.893 786.622 678.625 798.243 693.689 806.003C708.752 813.763 725.606 817.383 742.527 816.493C759.449 815.603 775.83 810.234 789.996 800.937L866.544 845.708L703.779 962.531C703.159 962.977 702.741 963.65 702.617 964.404C702.493 965.158 702.674 965.93 703.119 966.55C703.565 967.171 704.238 967.589 704.992 967.713C705.746 967.836 706.518 967.656 707.138 967.21L871.985 848.874L897.332 863.705L794.653 960.289C794.377 960.547 794.155 960.858 793.999 961.202C793.844 961.547 793.758 961.919 793.747 962.298C793.736 962.676 793.8 963.052 793.935 963.406C794.071 963.759 794.275 964.082 794.535 964.356C794.794 964.63 795.104 964.851 795.448 965.006C795.791 965.161 796.162 965.246 796.539 965.257C796.916 965.268 797.291 965.204 797.644 965.07C797.996 964.936 798.318 964.733 798.592 964.474L902.505 866.699L989.966 917.856L954.048 1030.49C953.933 1030.85 953.89 1031.23 953.921 1031.61C953.952 1031.98 954.056 1032.35 954.229 1032.68C954.401 1033.02 954.638 1033.31 954.926 1033.56C955.213 1033.8 955.546 1033.99 955.905 1034.1C956.189 1034.19 956.486 1034.24 956.785 1034.24C957.393 1034.24 957.985 1034.04 958.476 1033.68C958.968 1033.33 959.334 1032.82 959.521 1032.24L995.053 920.829L1054.08 955.363V1060.11C1054.08 1060.88 1054.38 1061.61 1054.92 1062.15C1055.46 1062.69 1056.19 1062.99 1056.95 1062.99C1057.72 1062.99 1058.45 1062.69 1058.99 1062.15C1059.53 1061.61 1059.83 1060.88 1059.83 1060.11V955.878L1118.31 921.666L1152.76 1033.88C1152.94 1034.47 1153.31 1034.99 1153.8 1035.35C1154.3 1035.72 1154.9 1035.91 1155.51 1035.91C1155.8 1035.91 1156.08 1035.87 1156.36 1035.78C1157.08 1035.56 1157.69 1035.06 1158.05 1034.38C1158.4 1033.71 1158.48 1032.93 1158.26 1032.2L1123.44 918.683L1211.01 867.472L1315.4 963.701C1315.96 964.19 1316.7 964.439 1317.44 964.396C1318.19 964.354 1318.89 964.023 1319.39 963.474C1319.9 962.924 1320.17 962.2 1320.15 961.453C1320.14 960.706 1319.83 959.996 1319.29 959.473L1216.2 864.435L1242.81 848.874L1394.52 956.532C1394.83 956.753 1395.18 956.911 1395.55 956.997C1395.91 957.082 1396.3 957.094 1396.67 957.031C1397.04 956.968 1397.4 956.832 1397.72 956.63C1398.04 956.429 1398.32 956.166 1398.54 955.856C1398.97 955.234 1399.15 954.463 1399.02 953.713C1398.89 952.963 1398.47 952.294 1397.85 951.854L1248.26 845.687L1325.19 800.69C1339.34 810.076 1355.74 815.525 1372.69 816.477C1389.65 817.429 1406.55 813.851 1421.67 806.108C1436.78 798.366 1449.56 786.74 1458.7 772.423C1467.83 758.107 1472.99 741.617 1473.65 724.647H1508.77C1509.73 737.887 1515.65 750.276 1525.37 759.327C1535.08 768.378 1547.85 773.42 1561.13 773.443C1561.52 773.467 1561.91 773.41 1562.28 773.277C1562.65 773.143 1562.99 772.936 1563.27 772.667C1563.56 772.398 1563.79 772.073 1563.94 771.713C1564.1 771.353 1564.18 770.964 1564.18 770.572C1564.18 770.18 1564.1 769.791 1563.94 769.431C1563.79 769.071 1563.56 768.746 1563.27 768.477C1562.99 768.208 1562.65 768.001 1562.28 767.867C1561.91 767.734 1561.52 767.677 1561.13 767.701C1549.37 767.685 1538.06 763.248 1529.42 755.272C1520.79 747.295 1515.48 736.363 1514.53 724.647H1574.25L1593.88 736.129C1594.32 736.386 1594.82 736.52 1595.33 736.516H1595.39C1595.9 736.518 1596.4 736.385 1596.84 736.129L1617.31 724.153C1617.45 724.076 1617.58 723.982 1617.69 723.874L1617.78 723.799C1617.9 723.69 1618.02 723.568 1618.11 723.434L1618.18 723.348L1618.38 723.08ZM1595.36 730.324L1581.41 722.135C1581.42 722.01 1581.42 721.885 1581.41 721.76C1581.43 721.574 1581.43 721.387 1581.41 721.202L1595.43 713.11L1610.24 721.695L1595.36 730.324ZM1378.04 631.004C1401.53 631.031 1424.07 640.235 1440.87 656.653C1457.67 673.071 1467.38 695.403 1467.95 718.884H1459.74C1459.38 704.903 1455.44 691.248 1448.3 679.223C1441.16 667.198 1431.06 657.207 1418.95 650.203C1406.85 643.199 1393.15 639.418 1379.16 639.221C1365.18 639.023 1351.38 642.416 1339.08 649.076L1338.8 649.269L1330.61 644.536C1344.84 635.671 1361.27 630.982 1378.04 631.004V631.004ZM1453.82 715.632L1344.7 652.66C1355.88 647.204 1368.22 644.577 1380.66 645.008C1393.09 645.44 1405.23 648.917 1416 655.135C1426.78 661.352 1435.86 670.12 1442.45 680.668C1449.05 691.217 1452.95 703.223 1453.82 715.632V715.632ZM1447.95 718.852H1431.75C1431.72 718.818 1431.69 718.782 1431.66 718.744L1431.47 718.54C1431.41 718.474 1431.34 718.413 1431.27 718.358L1431.02 718.176L1430.89 718.079L1266.26 623.127C1266.03 622.814 1265.73 622.552 1265.39 622.357C1265.06 622.161 1264.68 622.036 1264.3 621.989L1205.87 588.282L1211.91 582.691L1447.95 718.852ZM1420.72 718.852H1338.58L1291.92 691.926C1291.35 691.409 1290.6 691.123 1289.83 691.123C1289.06 691.123 1288.32 691.409 1287.74 691.926L1242.5 718.025H1227.06L1245.03 706.049C1245.67 705.622 1246.11 704.96 1246.25 704.21C1246.4 703.459 1246.24 702.681 1245.82 702.046C1245.39 701.411 1244.73 700.972 1243.98 700.825C1243.23 700.679 1242.45 700.836 1241.81 701.263L1216.67 718.025H1197.65L1216.3 705.148C1216.66 704.956 1216.97 704.692 1217.21 704.373C1217.46 704.055 1217.63 703.689 1217.72 703.298C1217.82 702.908 1217.83 702.502 1217.76 702.107C1217.69 701.711 1217.53 701.336 1217.31 701.003C1217.08 700.671 1216.79 700.39 1216.45 700.178C1216.11 699.966 1215.72 699.828 1215.33 699.773C1214.93 699.717 1214.52 699.746 1214.14 699.856C1213.75 699.967 1213.39 700.157 1213.08 700.415L1187.53 717.972H1186.46L1137.37 689.651L1263.54 628.224L1420.72 718.852ZM1289.83 746.11L1247.91 721.599L1289.83 697.41L1331.74 721.599L1289.83 746.11ZM1093.44 772.337C1093.02 772.409 1092.63 772.574 1092.28 772.82C1092.07 772.967 1091.88 773.144 1091.72 773.346L1059.85 791.987V781.524L1158.38 723.917C1158.51 723.83 1158.65 723.733 1158.77 723.627L1158.86 723.552C1158.98 723.441 1159.09 723.319 1159.19 723.187C1159.21 723.16 1159.23 723.131 1159.24 723.101C1159.3 723.034 1159.35 722.962 1159.4 722.887C1159.39 722.858 1159.39 722.829 1159.4 722.801C1159.4 722.704 1159.48 722.608 1159.51 722.511C1159.55 722.431 1159.58 722.349 1159.61 722.264L1159.67 721.996C1159.67 721.899 1159.67 721.814 1159.67 721.717C1159.68 721.628 1159.68 721.538 1159.67 721.449V721.17C1159.66 721.076 1159.64 720.983 1159.62 720.891C1159.61 720.799 1159.59 720.709 1159.56 720.622C1159.53 720.538 1159.5 720.456 1159.47 720.376L1159.34 720.097C1159.34 720.097 1159.34 720.032 1159.34 720L1159.24 719.871C1159.19 719.782 1159.13 719.699 1159.06 719.624C1159.01 719.551 1158.95 719.483 1158.88 719.42L1158.68 719.238C1158.6 719.17 1158.51 719.109 1158.42 719.056L1158.3 718.959L1059.79 662.082V651.673L1104.86 677.686C1105.27 678.131 1105.81 678.435 1106.4 678.555L1180.5 721.309L1093.44 772.337ZM1023.04 773.346C1022.87 773.131 1022.67 772.943 1022.45 772.788C1022.11 772.558 1021.73 772.404 1021.32 772.337L1007.29 764.138C1006.93 763.761 1006.47 763.493 1005.97 763.366L934.163 721.363L1005.33 680.293C1006.09 680.267 1006.8 679.947 1007.32 679.403C1007.45 679.262 1007.57 679.107 1007.67 678.941L1019.61 672.062C1020.03 671.999 1020.44 671.841 1020.8 671.601C1021.04 671.439 1021.25 671.24 1021.43 671.011L1054.11 652.156V662.576L956.452 718.938L956.323 719.034L956.076 719.217L955.862 719.399C955.795 719.462 955.734 719.53 955.679 719.603C955.61 719.682 955.549 719.769 955.497 719.86L955.4 719.978C955.404 720.011 955.404 720.043 955.4 720.075L955.272 720.354C955.238 720.435 955.209 720.517 955.186 720.601C955.159 720.689 955.138 720.779 955.121 720.869C955.111 720.962 955.111 721.055 955.121 721.148C955.116 721.241 955.116 721.334 955.121 721.427V721.695C955.116 721.788 955.116 721.882 955.121 721.975C955.134 722.065 955.152 722.154 955.175 722.243L955.272 722.49C955.303 722.587 955.347 722.681 955.4 722.769V722.865L955.551 723.091L955.604 723.166C955.705 723.3 955.82 723.422 955.948 723.531L956.023 723.606C956.148 723.712 956.281 723.809 956.42 723.895L1054.08 781.019V791.472L1023.04 773.346ZM1059.97 645.116L1059.85 644.944V565.713L1096.83 586.64L1074.95 653.733L1059.97 645.116ZM1057.38 760.694L990.417 721.524L1057.38 682.89L1124.35 721.524L1057.38 760.694ZM1054.1 678.147L983.27 719.023L983.141 719.109L982.894 719.292C982.821 719.347 982.753 719.408 982.69 719.474L982.497 719.678L982.315 719.936C982.283 719.972 982.254 720.012 982.229 720.054C982.225 720.086 982.225 720.118 982.229 720.15C982.175 720.238 982.132 720.331 982.1 720.429C982.1 720.515 982.025 720.601 982.004 720.676L981.939 720.955C981.934 721.044 981.934 721.134 981.939 721.223C981.934 721.316 981.934 721.409 981.939 721.502C981.934 721.592 981.934 721.681 981.939 721.771C981.928 721.863 981.928 721.957 981.939 722.05C981.954 722.14 981.976 722.23 982.004 722.318C982.027 722.405 982.056 722.491 982.09 722.575C982.09 722.672 982.165 722.758 982.218 722.855C982.213 722.883 982.213 722.912 982.218 722.94C982.262 723.019 982.312 723.095 982.369 723.166C982.382 723.197 982.401 723.226 982.422 723.252C982.524 723.381 982.636 723.503 982.755 723.616L982.841 723.681C982.96 723.789 983.09 723.886 983.227 723.971L1054.05 765.383V774.355L963.578 721.427L1054.11 669.186L1054.1 678.147ZM1059.85 774.881V765.909L1131.48 724.056C1131.62 723.97 1131.75 723.873 1131.88 723.767L1131.95 723.702C1132.08 723.589 1132.19 723.467 1132.3 723.337C1132.31 723.305 1132.33 723.276 1132.35 723.252C1132.35 723.176 1132.45 723.112 1132.49 723.026C1132.5 722.998 1132.5 722.969 1132.49 722.94C1132.54 722.852 1132.59 722.758 1132.62 722.661L1132.72 722.404C1132.72 722.314 1132.72 722.225 1132.72 722.135C1132.72 722.043 1132.72 721.949 1132.72 721.856V721.588C1132.72 721.495 1132.72 721.402 1132.72 721.309C1132.73 721.22 1132.73 721.13 1132.72 721.041C1132.7 720.947 1132.68 720.854 1132.65 720.762C1132.63 720.678 1132.6 720.596 1132.57 720.515L1132.44 720.236C1132.43 720.204 1132.43 720.171 1132.44 720.139L1132.34 720.021L1132.16 719.764L1131.98 719.56L1131.77 719.378L1131.51 719.195C1131.48 719.16 1131.43 719.131 1131.39 719.109L1059.86 677.653V668.714L1151.21 721.427L1059.85 774.881ZM1054.1 645.513L1039.8 653.765L1017.54 586.093L1054.1 565.703V645.513ZM1054.1 798.168V878.536L1015.79 855.839L1037.31 788.349L1054.1 798.168ZM1059.85 798.651L1077.42 788.37L1098.13 855.85L1059.86 878.515L1059.85 798.651ZM1132.92 685.52C1132.44 685.761 1132.05 686.133 1131.77 686.593L1112.02 675.121L1201.45 592.37L1257.58 624.758L1132.92 685.52ZM1106.8 672.062L1097.86 666.911L1164.63 571.079L1196.24 589.323L1106.8 672.062ZM1092.85 664.025L1079.97 656.631L1102.67 587.284C1102.8 587.136 1102.92 586.974 1103.01 586.801C1103.3 586.292 1103.43 585.709 1103.38 585.127L1116.92 543.564L1159.63 568.246L1092.85 664.025ZM1098.63 581.027L1059.86 559.103V510.672L1111.83 540.655L1098.63 581.027ZM1054.09 511.101V559.049L1015.69 580.458L1002.63 540.752L1054.09 511.101ZM1034.73 656.673L1019.94 665.184L955.057 568.268L997.521 543.768L1034.73 656.673ZM950.11 571.186L1014.99 668.113L1005.39 673.651L916.842 590.385L950.11 571.186ZM1000.19 676.645L981.51 687.376L855.673 625.638L911.637 593.347L1000.19 676.645ZM849.674 629.136L975.511 690.853L928.293 718.058H927.112L898.223 701.209C897.897 701.014 897.535 700.886 897.159 700.833C896.782 700.779 896.399 700.8 896.031 700.895C895.663 700.99 895.318 701.157 895.015 701.386C894.712 701.615 894.457 701.902 894.266 702.231C894.074 702.559 893.95 702.922 893.899 703.299C893.849 703.675 893.874 704.058 893.972 704.425C894.071 704.792 894.241 705.136 894.474 705.437C894.706 705.738 894.995 705.99 895.325 706.178L915.715 718.058H895.315L873.852 702.196C873.238 701.742 872.47 701.551 871.715 701.663C870.96 701.776 870.281 702.184 869.827 702.797C869.374 703.411 869.182 704.179 869.295 704.934C869.407 705.689 869.815 706.368 870.428 706.822L885.603 718.058H872.188C871.797 718.057 871.41 718.137 871.051 718.294L825.399 691.959C825.126 691.692 824.802 691.483 824.446 691.345C824.09 691.206 823.71 691.141 823.328 691.154C822.934 691.133 822.54 691.194 822.171 691.332C821.802 691.471 821.465 691.684 821.182 691.959L774.51 718.884H694.024L849.674 629.136ZM823.317 746.11L781.4 721.599L823.317 697.41L865.234 721.599L823.317 746.11ZM775.262 724.647L821.826 751.872C822.264 752.133 822.764 752.27 823.274 752.269H823.403C823.913 752.27 824.413 752.133 824.852 751.872L872.425 724.056C872.531 723.998 872.632 723.93 872.725 723.853H885.968L870.407 735.958C869.823 736.432 869.448 737.116 869.362 737.864C869.277 738.611 869.488 739.362 869.95 739.956C870.412 740.55 871.088 740.939 871.833 741.04C872.579 741.141 873.334 740.946 873.938 740.497L895.336 723.853H916.799L896.077 737.471C895.556 737.808 895.159 738.306 894.945 738.889C894.732 739.471 894.713 740.108 894.892 740.702C895.071 741.296 895.439 741.816 895.939 742.183C896.439 742.551 897.044 742.746 897.665 742.74C898.222 742.741 898.768 742.577 899.232 742.268L927.134 723.928L976.305 752.688L852.045 812.806C851.5 813.066 851.052 813.495 850.768 814.029L697.909 724.647H775.262ZM982.304 756.154L1000.41 766.735L912.056 849.872L856.188 817.206L982.304 756.154ZM1005.56 769.719L1016.62 776.158L951.161 872.022C951.058 872.175 950.968 872.336 950.893 872.505L917.207 852.888L1005.56 769.719ZM955.872 875.295L1021.6 779.098L1032.24 785.322L995.998 898.98L955.765 875.445L955.872 875.295ZM1014 861.398L1054.11 885.168V932.934L1001.08 901.92L1014 861.398ZM1059.86 885.168L1099.88 861.452L1112.51 902.618L1059.86 933.438V885.168ZM1082.53 785.365L1093.26 779.12L1160.54 874.63L1117.62 899.72L1082.53 785.365ZM1165.49 871.668L1098.2 776.158L1106.65 771.221L1196.12 853.703L1165.49 871.668ZM1111.83 768.238L1131.36 756.841L1258.18 817.452L1201.3 850.72L1111.83 768.238ZM1264.16 813.954L1137.36 753.3L1187.63 723.895L1213.11 741.377C1213.58 741.707 1214.15 741.883 1214.73 741.881C1215.34 741.882 1215.94 741.686 1216.43 741.323C1216.93 740.959 1217.29 740.446 1217.48 739.859C1217.66 739.272 1217.65 738.643 1217.45 738.062C1217.25 737.482 1216.86 736.981 1216.36 736.634L1197.65 723.81H1214.32C1214.34 723.837 1214.37 723.862 1214.39 723.885L1214.51 723.971C1214.61 724.061 1214.72 724.144 1214.83 724.217L1241.93 740.647C1242.38 740.918 1242.9 741.062 1243.42 741.066C1244.06 741.069 1244.67 740.863 1245.18 740.481C1245.68 740.099 1246.05 739.562 1246.22 738.952C1246.39 738.342 1246.35 737.694 1246.11 737.106C1245.88 736.518 1245.46 736.024 1244.91 735.7L1225.25 723.788H1240.41C1240.5 723.869 1240.61 723.941 1240.72 724.003L1288.25 751.797C1288.69 752.058 1289.19 752.195 1289.7 752.194H1289.84C1290.34 752.193 1290.84 752.056 1291.27 751.797L1337.9 724.647H1416.88L1264.16 813.954ZM1206.67 579.675L1200.63 585.277L1118.71 538.005L1121.2 530.364L1206.67 579.675ZM1113.63 535.075L1060.9 504.651C1060.84 504.448 1060.75 504.253 1060.64 504.072C1060.45 503.727 1060.18 503.427 1059.86 503.192V494.993L1116.15 527.477L1113.63 535.075ZM1054.08 495.369V504.061C1053.99 504.227 1053.91 504.399 1053.85 504.576L1000.78 535.204L998.273 527.563L1054.08 495.369ZM993.218 530.557L995.729 538.187L912.464 586.211L906.475 580.587L993.218 530.557ZM907.259 589.237L849.084 622.805C848.618 622.822 848.164 622.952 847.76 623.183C847.356 623.415 847.015 623.742 846.766 624.136L683.894 718.111L683.765 718.208L683.518 718.39C683.376 718.504 683.246 718.634 683.132 718.777L683.035 718.884H666.874L901.281 583.603L907.259 589.237ZM661.733 715.192C662.673 702.863 666.607 690.95 673.193 680.485C679.779 670.021 688.819 661.321 699.528 655.141C710.238 648.961 722.293 645.488 734.649 645.022C747.005 644.556 759.288 647.111 770.432 652.467L661.733 715.192ZM737.487 631.004C754.115 630.98 770.42 635.588 784.577 644.311L776.335 649.043C764.038 642.398 750.241 639.016 736.265 639.223C722.288 639.429 708.598 643.216 696.502 650.222C684.406 657.228 674.309 667.219 667.175 679.24C660.042 691.261 656.11 704.91 655.756 718.884H647.557C648.12 695.399 657.839 673.064 674.641 656.645C691.442 640.227 713.995 631.025 737.487 631.004V631.004ZM519.423 730.324L504.614 721.663L519.423 713.078L532.73 720.794C532.531 721.367 532.531 721.991 532.73 722.565L519.423 730.324ZM737.487 810.874C714.285 810.845 691.991 801.862 675.25 785.798C658.51 769.733 648.617 747.827 647.632 724.647H655.852C656.483 738.458 660.606 751.884 667.837 763.669C675.068 775.454 685.169 785.212 697.197 792.03C709.225 798.849 722.786 802.505 736.611 802.657C750.436 802.809 764.074 799.451 776.249 792.899L784.416 797.674C770.297 806.335 754.05 810.905 737.487 810.874V810.874ZM661.68 725.87L770.368 789.443C759.162 794.815 746.809 797.356 734.392 796.845C721.975 796.334 709.873 792.786 699.146 786.512C688.419 780.237 679.394 771.428 672.862 760.856C666.331 750.284 662.491 738.271 661.68 725.87V725.87ZM670.952 724.647H686.523L907.667 853.972L901.7 859.595L670.952 724.647ZM906.873 862.621L912.839 856.998L994.184 904.592L991.737 912.265L906.873 862.621ZM996.845 915.206L999.292 907.533L1054.11 939.587V948.699L996.845 915.206ZM1059.86 949.181V940.07L1114.25 908.262L1116.62 915.989L1059.86 949.181ZM1121.72 913.006L1119.35 905.279L1200.54 857.792L1206.59 863.362L1121.72 913.006ZM1205.73 854.755L1428.26 724.647H1443.83L1211.78 860.357L1205.73 854.755ZM1453.88 725.43C1453.14 737.912 1449.33 750.018 1442.79 760.674C1436.25 771.331 1427.18 780.209 1416.39 786.521C1405.59 792.833 1393.41 796.383 1380.91 796.857C1368.42 797.332 1356 794.715 1344.76 789.239L1453.88 725.43ZM1378.04 810.874C1361.33 810.902 1344.94 806.247 1330.74 797.438L1338.89 792.674C1351.06 799.312 1364.72 802.745 1378.58 802.651C1392.44 802.557 1406.06 798.938 1418.13 792.135C1430.21 785.332 1440.36 775.568 1447.63 763.762C1454.9 751.956 1459.04 738.495 1459.67 724.647H1467.89C1466.91 747.827 1457.01 769.733 1440.27 785.798C1423.53 801.862 1401.24 810.845 1378.04 810.874Z" fill="white"/>
</g>
</svg>
