<svg id="Layer_1" data-name="Layer 1" xmlns="http://www.w3.org/2000/svg" viewBox="0 0 1080 1080"><path d="M582.3,540.48a.36.36,0,0,1,0-.09,2,2,0,0,0,.11-.26,1.17,1.17,0,0,0,.09-.24l.06-.25c0-.08,0-.17,0-.26a2,2,0,0,0,0-.25,2.26,2.26,0,0,0,0-.26,2.21,2.21,0,0,0,0-.25,2.38,2.38,0,0,0-.05-.26l-.09-.23c0-.09-.07-.17-.12-.26s0-.06,0-.08a1.25,1.25,0,0,0-.08-.12c-.06-.08-.11-.16-.18-.24l-.17-.18a1.62,1.62,0,0,0-.19-.18l-.23-.17a1.25,1.25,0,0,1-.12-.08L541.81,514a2.89,2.89,0,0,0-3.82,0l-39.5,22.8a1,1,0,0,0-.13.09l-.22.16-.2.18-.17.18-.17.24-.09.12a.59.59,0,0,1,0,.08l-.12.26c0,.08-.06.16-.08.23a1.22,1.22,0,0,0-.06.26,2.21,2.21,0,0,0,0,.25v.51a2,2,0,0,0,0,.26,1.84,1.84,0,0,0,.05.25l.09.24c0,.09.07.17.11.26a.36.36,0,0,1,0,.09c.05.07.09.14.14.2l.05.08a2.58,2.58,0,0,0,.32.34l.07.07.36.26,0,0,0,0h0l40,23.39a2.66,2.66,0,0,0,1.35.36H540a2.66,2.66,0,0,0,1.35-.36l40-23.39h0l0,0,0,0,.36-.26a.27.27,0,0,1,.08-.07,3.39,3.39,0,0,0,.31-.34l0-.08A2.43,2.43,0,0,0,582.3,540.48Zm-42.4,19-34.74-20.32,34.74-20,34.75,20Z"/><path d="M1062.65,540.54a.36.36,0,0,0,0-.09,2.06,2.06,0,0,0,.12-.26,2.09,2.09,0,0,0,.08-.23c0-.09,0-.17.06-.25a1.27,1.27,0,0,0,0-.26,2.26,2.26,0,0,0,0-.26,2.09,2.09,0,0,0,0-.25,2.34,2.34,0,0,0,0-.26,1.83,1.83,0,0,0-.06-.25,1.57,1.57,0,0,0-.09-.23,1.59,1.59,0,0,0-.12-.27l0-.08-.08-.12a2,2,0,0,0-.17-.23,1.62,1.62,0,0,0-.18-.19l-.19-.18a1.88,1.88,0,0,0-.23-.16l-.12-.09-18.75-10.82a2.64,2.64,0,0,0-1.72-.59,2.61,2.61,0,0,0-1.72.59l-18.32,10.57H965.78A43.62,43.62,0,0,1,1009.3,495a2.68,2.68,0,1,0,0-5.36,49,49,0,0,0-48.88,47H927.83A89.18,89.18,0,0,0,789.76,464a3.19,3.19,0,0,0-.44.37L716,422.05l135.76-92.53a2.67,2.67,0,1,0-3-4.42l-137,93.37a2.56,2.56,0,0,0-.71.72l-23-13.28,94.41-87.35a2.68,2.68,0,1,0-3.64-3.93l-95.63,88.48-82.06-47.35L640.79,234a2.68,2.68,0,0,0-5.09-1.66L596.35,353l-53.11-30.65a2.9,2.9,0,0,0-.25-.61,2.8,2.8,0,0,0-.79-.85V226.28a2.68,2.68,0,0,0-5.36,0v95.45l0,0a2.45,2.45,0,0,0-.25.61l-53.44,30.84-39-118.58a2.68,2.68,0,1,0-5.09,1.68l39.38,119.63-83.19,48L301,315.41a2.68,2.68,0,1,0-3.67,3.9l93,87.43-22,12.71c-.08-.06-.14-.14-.23-.2l-143.88-101a2.68,2.68,0,0,0-3.08,4.38l142.1,99.78-72.34,41.74a1.07,1.07,0,0,0-.16-.14,89.18,89.18,0,0,0-138.07,72.64H120.07a49,49,0,0,0-48.88-47,2.68,2.68,0,0,0,0,5.36,43.62,43.62,0,0,1,43.52,41.65H58.64L40.32,526.06a2.8,2.8,0,0,0-3.44,0L18.13,536.88,18,537a1.88,1.88,0,0,0-.23.16l-.19.18-.18.19c-.06.07-.11.15-.17.23s-.06.08-.08.12l0,.08c-.05.09-.08.18-.12.27l-.09.23-.06.25c0,.08,0,.17,0,.26a2.09,2.09,0,0,0,0,.25,2.26,2.26,0,0,0,0,.26c0,.08,0,.17,0,.26s0,.16.06.25a2.09,2.09,0,0,0,.08.23l.12.26s0,.06,0,.09a1.43,1.43,0,0,0,.14.2.56.56,0,0,0,.05.08,2.5,2.5,0,0,0,.31.34l.08.07a1.83,1.83,0,0,0,.36.26l0,0,0,0h0l19.08,11.16a2.63,2.63,0,0,0,1.35.36h.05a2.63,2.63,0,0,0,1.35-.36L58.28,542h56.33a43.61,43.61,0,0,1-43.42,40.12,2.68,2.68,0,0,0,0,5.35A49,49,0,0,0,120,542h32.73a89.15,89.15,0,0,0,138,71.09l71.33,41.72L210.39,763.67a2.68,2.68,0,0,0,3.13,4.36L367.13,657.76l23.62,13.82-95.68,90a2.67,2.67,0,0,0-.11,3.79,2.67,2.67,0,0,0,3.78.11l96.83-91.11,81.5,47.67L443.6,827a2.67,2.67,0,0,0,1.73,3.36,2.6,2.6,0,0,0,.82.13,2.69,2.69,0,0,0,2.55-1.86l33.11-103.82,55,32.18v97.61a2.68,2.68,0,1,0,5.36,0V757.47l54.5-31.88,32.1,104.57a2.67,2.67,0,0,0,2.56,1.89,2.76,2.76,0,0,0,.79-.12,2.68,2.68,0,0,0,1.77-3.34L601.45,722.81l81.6-47.72,97.27,89.67a2.68,2.68,0,0,0,3.63-3.94l-96.07-88.56,24.8-14.5L854.05,758.08a2.67,2.67,0,0,0,3.74-.63,2.68,2.68,0,0,0-.64-3.73L717.76,654.79l71.68-41.93A89.14,89.14,0,0,0,927.78,542h32.73a49,49,0,0,0,48.79,45.47,2.68,2.68,0,1,0,0-5.35A43.62,43.62,0,0,1,965.88,542h55.65l18.29,10.7a2.63,2.63,0,0,0,1.35.36h.06a2.66,2.66,0,0,0,1.35-.36l19.07-11.16h0l0,0,0,0a1.83,1.83,0,0,0,.36-.26l.08-.07a2,2,0,0,0,.31-.34l.06-.08Zm-21.45,6.75-13-7.63a2.09,2.09,0,0,0,0-.35,3,3,0,0,0,0-.52l13.06-7.54,13.8,8ZM838.69,454.74a83.9,83.9,0,0,1,83.78,81.89h-7.65a76.18,76.18,0,0,0-112.43-65.05l-.26.18-7.64-4.41A83.39,83.39,0,0,1,838.69,454.74Zm70.62,78.86L807.62,474.92A70.81,70.81,0,0,1,909.31,533.6Zm-5.47,3h-15.1a.87.87,0,0,1-.08-.1l-.18-.19a1.54,1.54,0,0,0-.19-.17l-.23-.17-.12-.09L734.53,447.4a2.69,2.69,0,0,0-1.83-1.06l-54.44-31.41,5.63-5.21Zm-25.38,0H801.92l-43.48-25.09a2.9,2.9,0,0,0-3.89,0l-42.16,24.32H698l16.75-11.16a2.68,2.68,0,0,0-3-4.46l-23.43,15.62H670.6l17.38-12a2.68,2.68,0,1,0-3-4.41l-23.81,16.36h-1l-45.74-26.39L732,452.15ZM756.49,562l-39.06-22.84,39.06-22.54,39.06,22.54Zm-183,24.44a2.62,2.62,0,0,0-1.08.45,2.43,2.43,0,0,0-.52.49l-29.7,17.37V595L634,541.32h0l0,0a3.18,3.18,0,0,0,.37-.27l.08-.07a2.56,2.56,0,0,0,.31-.34.56.56,0,0,0,.05-.08,1.43,1.43,0,0,0,.14-.2.2.2,0,0,1,0-.08c0-.09.08-.18.11-.27a1.57,1.57,0,0,0,.09-.23l.06-.25c0-.09,0-.17,0-.26a2.09,2.09,0,0,0,0-.25v-.26a2.38,2.38,0,0,0-.05-.26,1.14,1.14,0,0,0-.06-.25,2.09,2.09,0,0,0-.08-.23l-.12-.26s0-.06,0-.09l-.09-.12a1.24,1.24,0,0,0-.17-.23,1.54,1.54,0,0,0-.17-.19l-.19-.17a1.77,1.77,0,0,0-.24-.17l-.11-.09-91.8-53V474l42,24.24,0,0a2.68,2.68,0,0,0,1.44.81l69.05,39.84Zm-65.6.94a2.49,2.49,0,0,0-.55-.52,2.64,2.64,0,0,0-1.05-.42l-13.08-7.64a2.55,2.55,0,0,0-1.23-.72l-66.91-39.14,66.32-38.27a2.69,2.69,0,0,0,1.85-.83,2.6,2.6,0,0,0,.33-.43L504.69,493a2.71,2.71,0,0,0,1.11-.43,2.57,2.57,0,0,0,.59-.55l30.45-17.57v9.71l-91,52.52-.12.09-.23.17-.2.17a1.54,1.54,0,0,0-.17.19,1.46,1.46,0,0,0-.17.24l-.09.11a.36.36,0,0,1,0,.09l-.12.26a2.09,2.09,0,0,0-.08.23,2.27,2.27,0,0,0-.06.25,1.17,1.17,0,0,0,0,.26,2.17,2.17,0,0,0,0,.26v.25a2.38,2.38,0,0,0,0,.26,2.21,2.21,0,0,0,.05.25l.09.23a1.23,1.23,0,0,0,.12.26l0,.09.14.21.05.07a2.08,2.08,0,0,0,.32.34l.07.07a3.18,3.18,0,0,0,.37.27l0,0h0l91,53.23v9.74Zm34.41-119.49-.11-.16V393.9l34.46,19.5-20.39,62.52Zm-2.41,107.7-62.4-36.5,62.4-36,62.4,36Zm-3.06-76.92-66,38.09-.12.08-.23.17a1.54,1.54,0,0,0-.19.17l-.18.19-.17.24a.76.76,0,0,0-.08.11.36.36,0,0,0,0,.09,1.23,1.23,0,0,0-.12.26c0,.08-.07.16-.09.23l-.06.26a2.17,2.17,0,0,0,0,.25,2.26,2.26,0,0,0,0,.26,2.09,2.09,0,0,0,0,.25,1.09,1.09,0,0,0,0,.26,1.83,1.83,0,0,0,.06.25,2.25,2.25,0,0,0,.08.24c0,.09.07.17.12.26a.2.2,0,0,0,0,.08,1.53,1.53,0,0,0,.14.21.35.35,0,0,0,.05.08,3.28,3.28,0,0,0,.31.34l.08.06a2.42,2.42,0,0,0,.36.27l0,0,0,0h0l66,38.59v8.36L452.48,539l84.36-48.68Zm5.36,90.14v-8.36l66.75-39h0l0,0a3.18,3.18,0,0,0,.37-.27l.07-.06a3.4,3.4,0,0,0,.32-.34.22.22,0,0,1,.05-.08c0-.07.09-.13.13-.21a.2.2,0,0,0,0-.08,1.51,1.51,0,0,0,.12-.26l.09-.24a1.84,1.84,0,0,0,0-.25,2,2,0,0,0,0-.26v-.25a2.26,2.26,0,0,0,0-.26,1.09,1.09,0,0,0,0-.25,2.44,2.44,0,0,0-.06-.26,2.09,2.09,0,0,0-.08-.23l-.12-.26a.36.36,0,0,1,0-.09l-.09-.11-.17-.24-.17-.19-.19-.17-.24-.17a.5.5,0,0,0-.12-.08L542.2,498.21v-8.33L627.32,539Zm-5.36-120.55-13.32,7.69-20.75-63.06,34.07-19Zm0,142.25v74.89l-35.7-21.15,20.06-62.89Zm5.36.45,16.37-9.58,19.3,62.88L542.2,685.38Zm68.09-105.42a2.62,2.62,0,0,0-1.07,1L590.8,495.85l83.34-77.11,52.3,30.18ZM585.94,493l-8.33-4.8,62.22-89.3,29.45,17Zm-13-7.49-12-6.89L582.09,414a2.44,2.44,0,0,0,.32-.45,2.72,2.72,0,0,0,.34-1.56l12.62-38.73,39.8,23Zm5.39-77.34L542.2,387.74V342.61l48.43,27.94Zm-41.51-65.16v44.68l-35.78,19.95-12.17-37ZM518.78,478.66,505,486.59l-60.46-90.31,39.57-22.83ZM439.93,399l60.46,90.32-8.95,5.16-82.51-77.59Zm46.67,98.27-17.41,10L351.93,449.74l52.15-30.09ZM346.34,453,463.6,510.51l-44,25.35h-1.1l-26.92-15.7a2.68,2.68,0,1,0-2.7,4.63l19,11.07H388.87l-20-14.78a2.68,2.68,0,0,0-3.19,4.31l14.14,10.47H367.32a2.64,2.64,0,0,0-1.06.22l-42.54-24.54a2.64,2.64,0,0,0-1.93-.75,2.67,2.67,0,0,0-2,.75l-43.49,25.09h-75ZM321.78,562l-39.06-22.84,39.06-22.54,39.06,22.54ZM277,542l43.39,25.37a2.64,2.64,0,0,0,1.35.37h.12a2.64,2.64,0,0,0,1.35-.37l44.33-25.92,0,0a1.73,1.73,0,0,0,.28-.19h12.34l-14.5,11.28a2.68,2.68,0,0,0,3.29,4.23l19.94-15.51h20l-19.31,12.69a2.67,2.67,0,0,0,1.48,4.91,2.62,2.62,0,0,0,1.46-.44l26-17.09,45.82,26.8L348.55,624.15a2.63,2.63,0,0,0-1.19,1.14L204.92,542Zm192.93,29.36,16.87,9.86-82.33,77.47-52.06-30.44ZM491.6,584l10.31,6-61,89.33a2.85,2.85,0,0,0-.25.45L409.27,661.5Zm-46.3,98.38,61.25-89.64,9.91,5.8L482.69,704.45,445.2,682.52Zm54.17-12.95,37.37,22.15v44.51l-49.41-28.9Zm42.73,22.15,37.29-22.1,11.77,38.36L542.2,736.56Zm21.12-93,10-5.82,62.7,89-40,23.38ZM640.63,679l-62.7-89,7.87-4.6,83.37,76.86Zm-50-96.38L608.83,572,727,628.48l-53,31Zm141.94,42.6L614.42,568.7l46.84-27.4L685,557.59a2.64,2.64,0,0,0,1.51.47,2.68,2.68,0,0,0,1.52-4.89L670.6,541.22h15.53a.46.46,0,0,0,.07.07l.11.08a2.37,2.37,0,0,0,.3.23l25.25,15.31a2.74,2.74,0,0,0,1.39.39,2.69,2.69,0,0,0,1.39-5l-18.32-11.1h14.12a1.87,1.87,0,0,0,.29.2l0,0h0l44.29,25.9a2.64,2.64,0,0,0,1.35.37h.13a2.63,2.63,0,0,0,1.34-.37L801.29,542h73.59ZM679,406.91l-5.63,5.22-76.33-44.05,2.32-7.12Zm-86.7-41.56L543.17,337a2.35,2.35,0,0,0-.24-.54,2.63,2.63,0,0,0-.73-.82V328l52.45,30.27Zm-55.49-37v8.1a3.33,3.33,0,0,0-.21.48l-49.45,28.54-2.34-7.12ZM480.1,361.14l2.34,7.11L404.85,413l-5.58-5.24ZM400,415.82,345.79,447.1a2.67,2.67,0,0,0-2.16,1.24L191.86,535.91l-.12.09-.23.17a2.3,2.3,0,0,0-.36.36l-.09.1H176L394.43,410.57ZM171.21,533.19A70.82,70.82,0,0,1,272.5,474.74Zm70.59-78.45a83.42,83.42,0,0,1,43.88,12.4L278,471.55a76.17,76.17,0,0,0-112.36,65.08H158A83.9,83.9,0,0,1,241.8,454.74ZM38.6,547.29l-13.8-8.07,13.8-8L51,538.41a2.51,2.51,0,0,0,0,1.65Zm203.2,75.06A83.91,83.91,0,0,1,158.07,542h7.66a76.17,76.17,0,0,0,112.19,63.6l7.61,4.45A83.34,83.34,0,0,1,241.8,622.35Zm-70.64-79.21,101.28,59.24a70.82,70.82,0,0,1-101.28-59.24ZM179.8,542h14.51L400.38,662.51l-5.56,5.24ZM399.64,670.57l5.56-5.24L481,709.68l-2.28,7.15Zm83.84,49,2.28-7.15,51.08,29.87v8.49Zm58.72,31.66v-8.49l50.68-29.64,2.21,7.2Zm57.64-33.71-2.21-7.2,75.66-44.25,5.64,5.19Zm78.29-54.28L885.49,542H900L683.76,668.46ZM909.36,542.73a70.8,70.8,0,0,1-101.68,59.46Zm-70.67,79.62a83.34,83.34,0,0,1-44.07-12.52l7.59-4.44A76.16,76.16,0,0,0,914.76,542h7.66A83.91,83.91,0,0,1,838.69,622.35Z"/></svg>